# xmcd CD database file generated by Grip 2.9
# 
# Track frame offsets:
#       150
#       18080
#       37532
#       72305
#       94987
#       139867
#       154035
#       167465
#       205725
#       261992
#       287455
#       311410
#       327257
# 
# Disc length: 4662 seconds
# 
# Revision: 3
# Processed by: cddbd v1.4b41PL1 Copyright (c) Steve Scherf et al.
# Submitted via: Grip 2.9
# 
DISCID=a512340d
DTITLE=Stevie Ray Vaughan - Disc 1 1983 Philadelphia PA
DYEAR=1900
DGENRE=
TTITLE0=Testify
TTITLE1=So Excited
TTITLE2=Voodoo Chile (Slight Return)
TTITLE3=Pride and Joy
TTITLE4=Texas Flood
TTITLE5=Love Struck Baby
TTITLE6=Mary Had a Little Lamb
TTITLE7=Tin Pan Alley
TTITLE8=Little Wing - Third Stone from the Sun
TTITLE9=Lenny
TTITLE10=Rude Mood
TTITLE11=Tell Me
TTITLE12=Scuttle Buttin'
EXTD=
EXTT0=
EXTT1=
EXTT2=
EXTT3=
EXTT4=
EXTT5=
EXTT6=
EXTT7=
EXTT8=
EXTT9=
EXTT10=
EXTT11=
EXTT12=
PLAYORDER=
